<svg xmlns="http://www.w3.org/2000/svg" version="1.1" xmlns:xlink="http://www.w3.org/1999/xlink" xmlns:svgjs="http://svgjs.dev/svgjs" width="1000" height="325" viewBox="0 0 1000 325"><g transform="matrix(1,0,0,1,-0.6060439272155236,-0.027372096144063107)"><svg viewBox="0 0 396 129" data-background-color="#fbeaab" preserveAspectRatio="xMidYMid meet" height="325" width="1000" xmlns="http://www.w3.org/2000/svg" xmlns:xlink="http://www.w3.org/1999/xlink"><g id="tight-bounds" transform="matrix(1,0,0,1,0.23999339517735052,0.010864616623337042)"><svg viewBox="0 0 395.52 128.97813549962657" height="128.97813549962657" width="395.52"><g><svg viewBox="0 0 617.7376614397726 201.44278873483373" height="128.97813549962657" width="395.52"><g transform="matrix(1,0,0,1,222.2176614397726,59.93135971196453)"><svg viewBox="0 0 395.52 81.58006931090466" height="81.58006931090466" width="395.52"><g id="textblocktransform"><svg viewBox="0 0 395.52 81.58006931090466" height="81.58006931090466" width="395.52" id="textblock"><g><svg viewBox="0 0 395.52 44.00039119804402" height="44.00039119804402" width="395.52"><g transform="matrix(1,0,0,1,0,0)"><svg width="395.52" viewBox="0.3500000238418579 -35.70000076293945 327.16998291015625 36.400001525878906" height="44.00039119804402" data-palette-color="#454545"><path d="M22.9-13.75L22.9-9.45 7.9-9.45 7.9-13.75 22.9-13.75ZM25.45 0L14.7-30.35 16.1-30.35 5.35 0 0.35 0 12.9-35 17.9-35 30.45 0 25.45 0ZM48.1 0.7L48.1 0.7Q43.17 0.7 39.96-1.19 36.75-3.08 35.17-6.56 33.6-10.05 33.6-14.85L33.6-14.85 33.6-35 38.35-35 38.35-16.15Q38.35-13.75 38.72-11.5 39.1-9.25 40.11-7.48 41.12-5.7 43.06-4.65 45-3.6 48.1-3.6L48.1-3.6Q51.22-3.6 53.15-4.65 55.07-5.7 56.09-7.49 57.1-9.28 57.47-11.53 57.85-13.78 57.85-16.15L57.85-16.15 57.85-35 62.6-35 62.6-14.85Q62.6-10.05 61.02-6.56 59.45-3.08 56.23-1.19 53.02 0.7 48.1 0.7ZM83.15 0L70.2 0 70.2-35 83.15-35Q88.22-35 92.15-32.93 96.07-30.85 98.31-26.94 100.55-23.03 100.55-17.5L100.55-17.5Q100.55-11.98 98.31-8.06 96.07-4.15 92.15-2.08 88.22 0 83.15 0L83.15 0ZM74.95-30.7L74.95-4.3 83.15-4.3Q87.15-4.3 89.86-5.96 92.57-7.63 93.96-10.6 95.35-13.58 95.35-17.5L95.35-17.5Q95.35-21.43 93.96-24.4 92.57-27.38 89.86-29.04 87.15-30.7 83.15-30.7L83.15-30.7 74.95-30.7ZM111.29 0L106.54 0 106.54-35 111.29-35 111.29 0ZM134.54 0.7L134.54 0.7Q129.54 0.7 125.64-1.54 121.74-3.78 119.52-7.86 117.29-11.95 117.29-17.5L117.29-17.5Q117.29-23.05 119.52-27.14 121.74-31.23 125.64-33.46 129.54-35.7 134.54-35.7L134.54-35.7Q139.54-35.7 143.44-33.46 147.34-31.23 149.57-27.14 151.79-23.05 151.79-17.5L151.79-17.5Q151.79-11.95 149.57-7.86 147.34-3.78 143.44-1.54 139.54 0.7 134.54 0.7ZM134.54-3.9L134.54-3.9Q138.57-3.9 141.27-5.71 143.97-7.53 145.33-10.61 146.69-13.7 146.69-17.5L146.69-17.5Q146.69-21.3 145.33-24.39 143.97-27.48 141.27-29.29 138.57-31.1 134.54-31.1L134.54-31.1Q130.52-31.1 127.82-29.29 125.12-27.48 123.75-24.39 122.39-21.3 122.39-17.5L122.39-17.5Q122.39-13.7 123.75-10.61 125.12-7.53 127.82-5.71 130.52-3.9 134.54-3.9ZM182.24 0L169.04 0 169.04-35 180.09-35Q184.79-35 187.46-32.89 190.14-30.78 190.14-26.45L190.14-26.45Q190.14-23.53 188.86-21.3 187.59-19.07 185.04-18.4L185.04-18.4 185.74-19.2Q189.39-18.6 191.39-16.29 193.39-13.98 193.39-10L193.39-10Q193.39-5.4 190.42-2.7 187.46 0 182.24 0L182.24 0ZM173.79-16.15L173.79-4.3 181.84-4.3Q184.74-4.3 186.46-5.75 188.19-7.2 188.19-10.15L188.19-10.15Q188.19-13.45 186.42-14.8 184.66-16.15 181.84-16.15L181.84-16.15 173.79-16.15ZM173.79-30.75L173.79-20.45 179.49-20.45Q182.04-20.45 183.64-21.48 185.24-22.5 185.24-25.6L185.24-25.6Q185.24-28.68 183.64-29.71 182.04-30.75 179.49-30.75L179.49-30.75 173.79-30.75ZM214.13 0.7L214.13 0.7Q209.13 0.7 205.23-1.54 201.33-3.78 199.11-7.86 196.88-11.95 196.88-17.5L196.88-17.5Q196.88-23.05 199.11-27.14 201.33-31.23 205.23-33.46 209.13-35.7 214.13-35.7L214.13-35.7Q219.13-35.7 223.03-33.46 226.93-31.23 229.16-27.14 231.38-23.05 231.38-17.5L231.38-17.5Q231.38-11.95 229.16-7.86 226.93-3.78 223.03-1.54 219.13 0.7 214.13 0.7ZM214.13-3.9L214.13-3.9Q218.16-3.9 220.86-5.71 223.56-7.53 224.92-10.61 226.28-13.7 226.28-17.5L226.28-17.5Q226.28-21.3 224.92-24.39 223.56-27.48 220.86-29.29 218.16-31.1 214.13-31.1L214.13-31.1Q210.11-31.1 207.41-29.29 204.71-27.48 203.35-24.39 201.98-21.3 201.98-17.5L201.98-17.5Q201.98-13.7 203.35-10.61 204.71-7.53 207.41-5.71 210.11-3.9 214.13-3.9ZM252.63 0.7L252.63 0.7Q247.63 0.7 243.73-1.54 239.83-3.78 237.61-7.86 235.38-11.95 235.38-17.5L235.38-17.5Q235.38-23.05 237.61-27.14 239.83-31.23 243.73-33.46 247.63-35.7 252.63-35.7L252.63-35.7Q257.63-35.7 261.53-33.46 265.43-31.23 267.66-27.14 269.88-23.05 269.88-17.5L269.88-17.5Q269.88-11.95 267.66-7.86 265.43-3.78 261.53-1.54 257.63 0.7 252.63 0.7ZM252.63-3.9L252.63-3.9Q256.66-3.9 259.36-5.71 262.06-7.53 263.42-10.61 264.78-13.7 264.78-17.5L264.78-17.5Q264.78-21.3 263.42-24.39 262.06-27.48 259.36-29.29 256.66-31.1 252.63-31.1L252.63-31.1Q248.61-31.1 245.91-29.29 243.21-27.48 241.84-24.39 240.48-21.3 240.48-17.5L240.48-17.5Q240.48-13.7 241.84-10.61 243.21-7.53 245.91-5.71 248.61-3.9 252.63-3.9ZM299.98 0L294.08 0 281.13-18.55 294.08-35 299.83-35 286.53-18.65 299.98 0ZM280.63 0L275.88 0 275.88-35 280.63-35 280.63 0ZM313.88 0.7L313.88 0.7Q311.7 0.7 309.52 0.38 307.35 0.05 305.5-0.46 303.65-0.98 302.43-1.55L302.43-1.55 303.07-6.6Q304.43-5.95 306.34-5.25 308.25-4.55 310.48-4.08 312.7-3.6 314.98-3.6L314.98-3.6Q318.35-3.6 320.34-4.84 322.32-6.08 322.32-8.7L322.32-8.7Q322.32-10.68 321.32-11.94 320.32-13.2 318.31-14.1 316.3-15 313.27-15.9L313.27-15.9Q310.4-16.75 307.98-17.91 305.55-19.07 304.09-21.04 302.63-23 302.63-26.25L302.63-26.25Q302.63-29.03 304.06-31.16 305.5-33.3 308.29-34.5 311.07-35.7 315.13-35.7L315.13-35.7Q318.57-35.7 321.46-34.95 324.35-34.2 326.23-33.3L326.23-33.3 325.73-28.25Q322.88-29.95 320.29-30.68 317.7-31.4 314.93-31.4L314.93-31.4Q311.85-31.4 309.84-30.25 307.82-29.1 307.82-26.5L307.82-26.5Q307.82-24.75 308.73-23.64 309.63-22.53 311.4-21.74 313.18-20.95 315.82-20.15L315.82-20.15Q319.48-19.05 322.1-17.64 324.73-16.23 326.13-14.16 327.52-12.1 327.52-9.05L327.52-9.05Q327.52-6.8 326.68-5 325.82-3.2 324.13-1.93 322.43-0.65 319.86 0.03 317.3 0.7 313.88 0.7Z" opacity="1" transform="matrix(1,0,0,1,0,0)" fill="#454545" class="wordmark-text-0" data-fill-palette-color="primary" id="text-0"></path></svg></g></svg></g><g transform="matrix(1,0,0,1,0,54.387827550513464)"><svg viewBox="0 0 84.67204778266245 27.192241760391205" height="27.192241760391205" width="84.67204778266245"><g transform="matrix(1,0,0,1,0,0)"><svg width="84.67204778266245" viewBox="3.700000047683716 -40.45000076293945 127.19000244140625 40.85000228881836" height="27.192241760391205" data-palette-color="#454545"><path d="M9.25-37.8L9.25-1.95Q9.25 0.4 6.5 0.4L6.5 0.4Q3.7 0.4 3.7-1.95L3.7-1.95 3.7-37.8Q3.7-40.15 6.5-40.15L6.5-40.15Q9.25-40.15 9.25-37.8L9.25-37.8ZM21.8-27.9L21.8-2.1Q21.8 0.3 19.05 0.3L19.05 0.3Q16.25 0.3 16.25-2.1L16.25-2.1 16.25-27.9Q16.25-30.3 19.05-30.3L19.05-30.3Q21.8-30.3 21.8-27.9L21.8-27.9ZM22.85-36.6L22.85-36.6Q22.85-35 21.75-33.9 20.65-32.8 19.05-32.8L19.05-32.8Q17.45-32.8 16.32-33.9 15.2-35 15.2-36.6L15.2-36.6Q15.2-38.25 16.32-39.35 17.45-40.45 19.05-40.45L19.05-40.45Q20.65-40.45 21.75-39.35 22.85-38.25 22.85-36.6ZM37.65-17.5L45-17.5Q46.25-17.5 47.67-16.93 49.1-16.35 50.35-15.5L50.35-15.5 50.3-15.5Q51.6-14.55 52.3-13.05 53-11.55 53-9.45L53-9.45 53-7.95Q53-3.85 50.3-1.9L50.3-1.9Q49-0.9 47.65-0.45 46.3 0 45 0L45 0 36.5 0Q35.2 0 33.85-0.45 32.5-0.9 31.2-1.9L31.2-1.9Q28.5-3.8 28.5-7.95L28.5-7.95 28.5-8.55Q28.5-10.7 31.25-10.65L31.25-10.65Q34.05-10.65 34.05-8.55L34.05-8.55 34.05-8Q34.05-6.8 34.8-5.75 35.55-4.7 37.45-4.7L37.45-4.7 44.05-4.7Q45.95-4.7 46.7-5.75 47.45-6.8 47.45-8L47.45-8 47.45-9.4Q47.45-10.05 47.27-10.65 47.1-11.25 46.7-11.73 46.3-12.2 45.65-12.5 45-12.8 44.05-12.8L44.05-12.8 36.75-12.8Q34.2-12.8 31.4-14.6L31.4-14.6Q28.75-16.3 28.75-20.45L28.75-20.45 28.75-22.15Q28.75-24.15 29.45-25.68 30.15-27.2 31.45-28.15L31.45-28.15 31.4-28.15Q32.65-29 34.05-29.55 35.45-30.1 36.75-30.1L36.75-30.1 44.75-30.1Q46.05-30.1 47.42-29.55 48.8-29 50.1-28.15L50.1-28.15 50.05-28.15Q51.35-27.2 52.05-25.68 52.75-24.15 52.75-22.15L52.75-22.15 52.75-21.7Q52.75-20.65 52.05-20.18 51.35-19.7 50-19.65L50-19.65Q47.25-19.6 47.25-21.7L47.25-21.7 47.25-22.1Q47.25-23.35 46.47-24.38 45.7-25.4 43.85-25.4L43.85-25.4 37.65-25.4Q35.8-25.4 35.02-24.38 34.25-23.35 34.25-22.1L34.25-22.1 34.25-20.9Q34.25-19.6 35.02-18.55 35.8-17.5 37.65-17.5L37.65-17.5ZM70.19-25.4L66.04-25.4 66.04-7.2Q66.04-5.9 66.59-5.2 67.14-4.5 68.94-4.5L68.94-4.5 70.24-4.5Q72.19-4.5 72.09-2.2L72.09-2.2Q72.09 0.15 70.24 0.15L70.24 0.15 68.59 0.15Q66.99 0.15 65.59-0.28 64.19-0.7 62.89-1.5L62.89-1.5 62.89-1.45Q60.44-3.05 60.44-7.15L60.44-7.15 60.44-25.4 58.49-25.4Q56.69-25.4 56.59-27.75L56.59-27.75Q56.59-30.1 58.49-30.1L58.49-30.1 60.44-30.1 60.44-35.45Q60.44-37.85 63.29-37.85L63.29-37.85Q66.04-37.85 66.04-35.45L66.04-35.45 66.04-30.1 70.19-30.1Q72.14-30.1 72.04-27.75L72.04-27.75Q72.04-25.4 70.19-25.4L70.19-25.4ZM81.94-22.15L81.94-8Q81.94-6.8 82.72-5.75 83.49-4.7 85.34-4.7L85.34-4.7 91.59-4.7Q93.44-4.7 94.22-5.63 94.99-6.55 94.99-7.75L94.99-7.75 94.99-8.3Q94.99-10.65 97.74-10.65L97.74-10.65Q100.49-10.65 100.49-8.3L100.49-8.3 100.49-7.7Q100.49-5.6 99.82-4.25 99.14-2.9 97.79-1.9L97.79-1.9Q95.14 0 92.49 0L92.49 0 84.09 0Q81.44 0 78.94-1.9L78.94-1.9Q77.74-2.9 77.09-4.42 76.44-5.95 76.44-7.95L76.44-7.95 76.44-22.2Q76.44-26.25 78.94-28.2L78.94-28.2Q80.19-29.1 81.52-29.63 82.84-30.15 84.09-30.15L84.09-30.15 92.49-30.15Q93.69-30.15 95.14-29.68 96.59-29.2 97.84-28.4L97.84-28.4Q99.04-27.55 99.77-26.05 100.49-24.55 100.49-22.5L100.49-22.5 100.49-15.75Q100.49-14.6 99.82-13.7 99.14-12.8 97.34-12.8L97.34-12.8 86.54-12.8Q84.74-12.8 84.64-15.15L84.64-15.15Q84.64-17.5 86.54-17.5L86.54-17.5 95.04-17.5 94.99-22.15Q94.99-23.4 94.22-24.43 93.44-25.45 91.59-25.45L91.59-25.45 85.34-25.45Q83.49-25.45 82.72-24.43 81.94-23.4 81.94-22.15L81.94-22.15ZM112.34-21.75L112.34-2.1Q112.34 0.3 109.59 0.3L109.59 0.3Q106.84 0.3 106.84-2.1L106.84-2.1 106.84-22.2Q106.84-24.25 107.49-25.75 108.14-27.25 109.54-28.2L109.54-28.2Q112.19-30.1 114.84-30.1L114.84-30.1 122.89-30.1Q125.44-30.1 128.19-28.2L128.19-28.2Q130.89-26.3 130.89-22.2L130.89-22.2 130.89-2.1Q130.89 0.3 128.14 0.3L128.14 0.3Q125.39 0.3 125.39-2.1L125.39-2.1 125.39-21.75Q125.39-23.05 124.59-24.25L124.59-24.25 124.64-24.2Q123.99-25.4 121.99-25.4L121.99-25.4 115.74-25.4Q113.69-25.4 113.04-24.2L113.04-24.2Q112.34-23.15 112.34-21.75L112.34-21.75Z" opacity="1" transform="matrix(1,0,0,1,0,0)" fill="#454545" class="slogan-text-1" data-fill-palette-color="secondary" id="text-1"></path></svg></g></svg></g></svg></g></svg></g><g><svg viewBox="0 0 201.44278873483373 201.44278873483373" height="201.44278873483373" width="201.44278873483373"><g><svg></svg></g><g id="icon-0"><svg viewBox="0 0 201.44278873483373 201.44278873483373" height="201.44278873483373" width="201.44278873483373"><g><path d="M0 100.721c0-55.627 45.094-100.721 100.721-100.721 55.627 0 100.721 45.094 100.722 100.721 0 55.627-45.094 100.721-100.722 100.722-55.627 0-100.721-45.094-100.721-100.722zM100.721 197.475c53.435 0 96.753-43.318 96.754-96.754 0-53.435-43.318-96.753-96.754-96.753-53.435 0-96.753 43.318-96.753 96.753 0 53.435 43.318 96.753 96.753 96.754z" data-fill-palette-color="accent" fill="#454545" stroke="transparent"></path></g><g transform="matrix(1,0,0,1,39.85748745965091,69.74775251353857)"><svg viewBox="0 0 121.7278138155319 61.947283707756576" height="61.947283707756576" width="121.7278138155319"><g><svg xmlns="http://www.w3.org/2000/svg" xmlns:xlink="http://www.w3.org/1999/xlink" version="1.1" x="0" y="0" viewBox="0 24.55500030517578 100 50.88999938964844" enable-background="new 0 0 100 100" xml:space="preserve" height="61.947283707756576" width="121.7278138155319" class="icon-s-0" data-fill-palette-color="accent" id="s-0"><polygon points="17.481,36.182 0,36.182 0,63.214 17.481,63.214 41.752,74.841 41.752,24.555 " fill="#454545" data-fill-palette-color="accent"></polygon><path d="M64.24 75.445c-0.028 0-0.058 0-0.087-0.003-2.306-0.124-2.806-3.656-3.945-18.707-0.433-5.719-1.055-13.927-1.899-17.044-0.237 0.444-0.499 0.953-0.732 1.413-2.195 4.298-5.855 11.464-11.422 11.464-0.05 0-0.099 0-0.15-0.001l0.061-2.646c0.028 0.002 0.058 0.002 0.086 0.002 3.95 0 7.15-6.267 9.068-10.022 1.282-2.51 1.812-3.55 2.852-3.744 0.509-0.095 1.017 0.033 1.441 0.358 1.748 1.342 2.357 7.132 3.333 20.021 0.334 4.396 0.75 9.896 1.264 13.35 0.395-3.8 0.619-10.108 0.811-15.501 0.754-21.267 1.394-27.026 4.461-27.026 0.404 0 1.001 0.116 1.55 0.675 1.899 1.922 1.958 8.574 1.826 19.303-0.035 2.857-0.079 6.355 0.02 8.899 0.496-2.74 0.919-6.636 1.217-9.362 0.96-8.815 1.258-10.897 3.117-10.897 1.927 0 2.267 2.53 3.009 8.073 0.223 1.663 0.54 4.031 0.906 5.738 0.032-0.432 0.059-0.866 0.081-1.239 0.209-3.455 0.495-8.185 4.189-8.185 3.878 0 4.194 3.934 4.364 6.046 0.024 0.317 0.058 0.706 0.096 1.006H100v2.646H89.087c-1.788 0-1.947-1.987-2.064-3.439-0.228-2.835-0.6-3.612-1.727-3.612-1.204 0-1.42 3.567-1.549 5.698-0.173 2.872-0.337 5.585-2.542 5.585-2.278 0-2.838-3.392-3.708-9.892-0.092-0.684-0.194-1.441-0.302-2.186-0.206 1.59-0.404 3.396-0.572 4.945-1.182 10.853-1.811 14.652-4.212 14.652 0 0 0 0-0.001 0-0.443 0-0.865-0.181-1.191-0.511-1.161-1.176-1.225-4.577-1.108-13.998 0.066-5.337 0.171-13.856-0.678-16.637-1.147 3.484-1.576 15.55-1.87 23.812-0.533 15.049-0.868 19.298-2.208 20.522C65.04 75.29 64.646 75.445 64.24 75.445z" fill="#454545" data-fill-palette-color="accent"></path></svg></g></svg></g></svg></g></svg></g></svg></g><defs></defs></svg><rect width="395.52" height="128.97813549962657" fill="none" stroke="none" visibility="hidden"></rect></g></svg></g></svg>